<svg xmlns="http://www.w3.org/2000/svg" viewBox="0 0 351.78 401"><defs><style>.cls-1{fill:#a99060;}.cls-2{fill:#0f121a;}</style></defs><g id="Layer_2" data-name="Layer 2"><g id="Layer_35" data-name="Layer 35"><path class="cls-1" d="M149.29,325.92H130.46l10.46,10.45V218.65l-10.46,10.46h92.15l-10.46-10.46v67.88l10.46-10.45H193.55c-13.45,0-13.48,20.9,0,20.9h29.06a10.6,10.6,0,0,0,10.45-10.45V218.65a10.6,10.6,0,0,0-10.45-10.45H130.46A10.6,10.6,0,0,0,120,218.65V336.37a10.6,10.6,0,0,0,10.45,10.45h18.83c13.45,0,13.47-20.9,0-20.9Z"/><path class="cls-2" d="M120.05,380.09l-47-.18,10.46,10.45.77-206.89L84.36,154,73.91,164.49H276.6L266.15,154V336.37l10.45-10.45H228.92c-13.45,0-13.47,20.9,0,20.9H276.6a10.6,10.6,0,0,0,10.45-10.45V154a10.6,10.6,0,0,0-10.45-10.45H73.91A10.61,10.61,0,0,0,63.46,154l-.78,206.9-.11,29.42A10.62,10.62,0,0,0,73,400.82l47,.18c13.45.05,13.47-20.85,0-20.91Z"/><path class="cls-2" d="M21.08,390.55V129.26l-5.17,9L188.34,19.53H177.79L335.94,138.28l-5.18-9v261.1l10.45-10.45H264.48c-13.45,0-13.47,20.91,0,20.91h76.73a10.6,10.6,0,0,0,10.45-10.46v-249c0-8.28,1.42-15.46-5.5-21.36-23.49-20.06-49.89-37.47-74.59-56L188.34,1.48c-2.74-2-7.79-1.9-10.55,0l-166,114.35C5.41,120.2.47,123.54.18,132c-.4,11.71,0,23.5,0,35.21V390.55c0,13.45,20.9,13.47,20.9,0Z"/></g></g></svg>