<svg xmlns="http://www.w3.org/2000/svg" viewBox="0 0 716.44 625.35"><defs><style>.cls-1{fill:#a99060;}.cls-2,.cls-3{fill:#fcfefb;}.cls-3{font-size:133.84px;font-family:AvenirNext-Regular, Avenir Next;letter-spacing:-0.01em;}.cls-4{font-size:70px;letter-spacing:0em;}.cls-5{letter-spacing:0em;}.cls-6{letter-spacing:-0.02em;}</style></defs><g id="Layer_2" data-name="Layer 2"><g id="Layer_35" data-name="Layer 35"><path class="cls-1" d="M329.33,325.92H310.5L321,336.37V218.65L310.5,229.11h92.15l-10.46-10.46v67.88l10.46-10.45H373.59c-13.45,0-13.47,20.9,0,20.9h29.06a10.6,10.6,0,0,0,10.45-10.45V218.65a10.6,10.6,0,0,0-10.45-10.45H310.5a10.6,10.6,0,0,0-10.45,10.45V336.37a10.6,10.6,0,0,0,10.45,10.45h18.83c13.45,0,13.47-20.9,0-20.9Z"/><path class="cls-2" d="M300.09,380.09l-47-.18,10.46,10.45.77-206.89L264.4,154,254,164.49H456.64L446.19,154V336.37l10.45-10.45H409c-13.45,0-13.47,20.9,0,20.9h47.68a10.6,10.6,0,0,0,10.45-10.45V154a10.6,10.6,0,0,0-10.45-10.45H254A10.61,10.61,0,0,0,243.5,154l-.78,206.9-.11,29.42a10.62,10.62,0,0,0,10.45,10.46l47,.18c13.45.05,13.47-20.85,0-20.91Z"/><path class="cls-2" d="M201.12,390.55V129.26l-5.17,9L368.38,19.53H357.83L516,138.28l-5.18-9v261.1l10.45-10.45H444.52c-13.45,0-13.47,20.91,0,20.91h76.73a10.6,10.6,0,0,0,10.45-10.46v-249c0-8.28,1.42-15.46-5.5-21.36-23.49-20.06-49.89-37.47-74.59-56L368.38,1.48c-2.74-2-7.79-1.9-10.55,0l-166,114.35c-6.34,4.37-11.28,7.71-11.57,16.14-.4,11.71,0,23.5,0,35.21V390.55c0,13.45,20.9,13.47,20.9,0Z"/><text class="cls-3" transform="translate(0 570.34)">ZU<tspan class="cls-4" x="170.25" y="-8">_</tspan><tspan class="cls-5" x="204.9" y="0">H</tspan><tspan class="cls-6" x="300.33" y="0">A</tspan><tspan class="cls-5" x="391.74" y="0">USE7</tspan></text><path class="cls-2" d="M5.27,591.33H6.44v14.08h8.14l-.22,1.08H5.27Z"/><path class="cls-2" d="M28.91,591.33v15.16H27.75V591.33Z"/><path class="cls-2" d="M55.68,606.49h-1a11,11,0,0,1-.15-2.43c-.54,1-1.73,2.6-4.89,2.6-4.36,0-6.59-3.31-6.59-7.62,0-4.52,2.39-7.92,6.82-7.92,3.27,0,5.44,1.71,5.92,4.5H54.64a4.52,4.52,0,0,0-4.79-3.42c-3.79,0-5.52,2.94-5.52,6.78,0,3.46,1.67,6.6,5.37,6.6s4.85-2.47,4.85-5.82v-.18H49.66V598.5h6Z"/><path class="cls-2" d="M70.42,591.33h1.17v6.61h9.09v-6.61h1.17v15.16H80.68V599H71.59v7.47H70.42Z"/><path class="cls-2" d="M100.17,592.42H95.08v-1.09h11.39v1.09h-5.11v14.07h-1.19Z"/><path class="cls-2" d="M120.72,591.33v15.16h-1.17V591.33Z"/><path class="cls-2" d="M136,606.49V591.33h1.74c2.35,3.64,7.9,12.11,8.85,13.75h0c-.13-2.18-.11-4.41-.11-6.88v-6.87h1.2v15.16h-1.61c-2.25-3.51-7.88-12.32-9-14h0c.1,2,.08,4.2.08,7v7Z"/><path class="cls-2" d="M174.46,606.49h-1a11.82,11.82,0,0,1-.15-2.43c-.54,1-1.73,2.6-4.89,2.6-4.36,0-6.58-3.31-6.58-7.62,0-4.52,2.38-7.92,6.82-7.92,3.27,0,5.43,1.71,5.91,4.5h-1.17a4.52,4.52,0,0,0-4.79-3.42c-3.79,0-5.52,2.94-5.52,6.78,0,3.46,1.67,6.6,5.37,6.6s4.85-2.47,4.85-5.82v-.18h-4.89V598.5h6Z"/><path class="cls-2" d="M206.05,603.24a2.68,2.68,0,1,1,2.68-2.68A2.67,2.67,0,0,1,206.05,603.24Z"/><path class="cls-2" d="M239.24,591.33h9.18v1.09h-8v5.71h7.51v1.08h-7.51v7.28h-1.17Z"/><path class="cls-2" d="M263,591.33v9.18c0,4,2.27,5.07,4.42,5.07,2.53,0,4.41-1.06,4.41-5.07v-9.18H273v9.12c0,4.74-2.51,6.21-5.65,6.21-3,0-5.58-1.62-5.58-6v-9.31Z"/><path class="cls-2" d="M289.25,599.41v7.08h-1.19V591.33h5.44c3,0,4.57,1.61,4.57,4a3.44,3.44,0,0,1-2.84,3.55c1.56.37,2.6,1.38,2.6,4v.59a10.13,10.13,0,0,0,.19,3.07h-1.19a10.2,10.2,0,0,1-.21-3.16v-.39c0-2.49-.74-3.53-3.64-3.53Zm0-1.08h3.66c2.67,0,3.9-1,3.9-3s-1.21-2.92-3.57-2.92h-4Z"/><path class="cls-2" d="M312.59,606.49V591.33h1.74c2.36,3.64,7.9,12.11,8.85,13.75h0c-.13-2.18-.11-4.41-.11-6.88v-6.87h1.2v15.16h-1.61c-2.25-3.51-7.88-12.32-9-14h0c.11,2,.08,4.2.08,7v7Z"/><path class="cls-2" d="M340.74,591.33v15.16h-1.17V591.33Z"/><path class="cls-2" d="M359.06,592.42H354v-1.09h11.39v1.09h-5.11v14.07h-1.19Z"/><path class="cls-2" d="M379.82,591.33v9.18c0,4,2.27,5.07,4.42,5.07,2.53,0,4.42-1.06,4.42-5.07v-9.18h1.19v9.12c0,4.74-2.52,6.21-5.65,6.21s-5.59-1.62-5.59-6v-9.31Z"/><path class="cls-2" d="M406.11,599.41v7.08h-1.19V591.33h5.43c3,0,4.57,1.61,4.57,4a3.44,3.44,0,0,1-2.84,3.55c1.56.37,2.6,1.38,2.6,4v.59a9.78,9.78,0,0,0,.2,3.07h-1.2a10.2,10.2,0,0,1-.21-3.16v-.39c0-2.49-.74-3.53-3.64-3.53Zm0-1.08h3.66c2.66,0,3.89-1,3.89-3s-1.21-2.92-3.57-2.92h-4Z"/><path class="cls-2" d="M438.34,599h-7.72v6.37h8.46l-.17,1.08h-9.46V591.33h9.29v1.09h-8.12V598h7.72Z"/><path class="cls-2" d="M469.91,603.24a2.68,2.68,0,1,1,2.69-2.68A2.67,2.67,0,0,1,469.91,603.24Z"/><path class="cls-2" d="M504.66,601.25l-1.92,5.24h-1.19l5.56-15.16h1.39l5.8,15.16H513l-2-5.24Zm6-1.08c-1.69-4.51-2.55-6.67-2.86-7.69h0c-.37,1.15-1.34,3.83-2.7,7.69Z"/><path class="cls-2" d="M529,599.41v7.08h-1.19V591.33h5.44c3,0,4.56,1.61,4.56,4a3.43,3.43,0,0,1-2.83,3.55c1.56.37,2.6,1.38,2.6,4v.59a10.13,10.13,0,0,0,.19,3.07h-1.19a10.14,10.14,0,0,1-.22-3.16v-.39c0-2.49-.73-3.53-3.63-3.53Zm0-1.08h3.66c2.66,0,3.9-1,3.9-3s-1.21-2.92-3.57-2.92h-4Z"/><path class="cls-2" d="M555.5,592.42h-5.09v-1.09H561.8v1.09h-5.11v14.07H555.5Z"/><path class="cls-2" d="M583.78,599h-7.73v6.37h8.47l-.18,1.08h-9.46V591.33h9.29v1.09h-8.12V598h7.73Z"/><path class="cls-2" d="M598.33,591.33h9.18v1.09h-8v5.71H607v1.08H599.5v7.28h-1.17Z"/><path class="cls-2" d="M621.37,601.25l-1.93,5.24h-1.19l5.56-15.16h1.39l5.8,15.16h-1.28l-2-5.24Zm6-1.08c-1.69-4.51-2.55-6.67-2.85-7.69h0c-.36,1.15-1.34,3.83-2.7,7.69Z"/><path class="cls-2" d="M655.71,602.44a5.54,5.54,0,0,1-5.7,4.22c-4.35,0-6.64-3.46-6.64-7.73,0-4.09,2.25-7.81,6.66-7.81,3.27,0,5.2,1.82,5.7,4.35h-1.17A4.39,4.39,0,0,0,650,592.2c-3.77,0-5.35,3.44-5.35,6.71s1.56,6.67,5.44,6.67a4.45,4.45,0,0,0,4.48-3.14Z"/><path class="cls-2" d="M673,592.42h-5.09v-1.09h11.39v1.09H674.2v14.07H673Z"/><path class="cls-2" d="M692.49,602.42c.46,2,1.8,3.2,4.29,3.2,2.77,0,3.83-1.38,3.83-3s-.76-2.77-4.09-3.59-4.59-1.84-4.59-4c0-2,1.45-3.85,4.7-3.85s4.74,2,4.93,3.87h-1.21c-.35-1.62-1.41-2.79-3.79-2.79-2.18,0-3.38,1-3.38,2.71s1,2.31,3.79,3c4.27,1.06,4.9,2.77,4.9,4.59,0,2.23-1.63,4.15-5.13,4.15-3.79,0-5.18-2.21-5.46-4.24Z"/></g></g></svg>